<svg width="40" height="38" viewBox="0 0 40 38" fill="none" xmlns="http://www.w3.org/2000/svg">
<g clip-path="url(#clip0_1_25)">
<path d="M23.2804 24.014C24.6441 22.5146 25.4538 20.5885 25.5736 18.5591C25.6934 16.5298 25.1159 14.5208 23.9381 12.8694C22.7604 11.218 21.0541 10.0249 19.1057 9.49047C17.1575 8.956 15.0858 9.11271 13.2387 9.93427C11.3916 10.7558 9.88155 12.1922 8.96212 14.0022C8.04271 15.8122 7.76991 17.8856 8.18955 19.8741C8.6092 21.8627 9.69572 23.6453 11.2667 24.9227C12.8376 26.2001 14.7973 26.8943 16.8166 26.889C18.7225 26.8915 20.5769 26.2663 22.0966 25.1086L28.6526 31.759C28.725 31.8348 28.8116 31.8954 28.9075 31.9371C29.0034 31.9788 29.1066 32.0008 29.2111 32.0018C29.3158 32.002 29.4193 31.9807 29.5155 31.9389C29.6115 31.8972 29.6981 31.8359 29.7696 31.759C29.9167 31.6049 29.9989 31.3994 29.9989 31.1857C29.9989 30.9719 29.9167 30.7664 29.7696 30.6123L23.2804 24.014ZM9.59555 17.9445C9.60641 16.5089 10.0392 15.1086 10.8394 13.9203C11.6395 12.7319 12.7712 11.8087 14.0918 11.2669C15.4125 10.7251 16.8628 10.5891 18.2601 10.8759C19.6574 11.1627 20.9391 11.8596 21.9436 12.8786C22.948 13.8977 23.6304 15.1933 23.9045 16.6022C24.1786 18.0111 24.0323 19.4701 23.484 20.7954C22.9357 22.1207 22.0099 23.2528 20.8233 24.0492C19.6369 24.8456 18.2427 25.2705 16.8166 25.2704C14.8946 25.2612 13.0548 24.4845 11.701 23.1111C10.3471 21.7376 9.58992 19.8794 9.59555 17.9445Z" fill="#E8E8E8"/>
</g>
<defs>
<clipPath id="clip0_1_25">
<rect width="22" height="23" fill="white" transform="translate(8 9)"/>
</clipPath>
</defs>
</svg>
