<svg width="42" height="38" viewBox="0 0 42 38" fill="none" xmlns="http://www.w3.org/2000/svg">
<g clip-path="url(#clip0_1_23)">
<path d="M29.2009 37C28.5532 36.9738 27.9415 36.6948 27.4972 36.2227C27.0529 35.7506 26.8114 35.1232 26.8245 34.475C26.8376 33.8269 27.1043 33.2097 27.5673 32.7559C28.0303 32.3022 28.6527 32.048 29.301 32.048C29.9493 32.048 30.5717 32.3022 31.0347 32.7559C31.4977 33.2097 31.7644 33.8269 31.7775 34.475C31.7906 35.1232 31.549 35.7506 31.1047 36.2227C30.6604 36.6948 30.0488 36.9738 29.401 37H29.2009ZM9.75293 34.32C9.75293 33.79 9.91011 33.2718 10.2046 32.8311C10.4991 32.3904 10.9176 32.0469 11.4073 31.844C11.897 31.6412 12.4359 31.5881 12.9558 31.6915C13.4757 31.7949 13.9532 32.0502 14.328 32.425C14.7028 32.7998 14.9581 33.2773 15.0615 33.7972C15.1649 34.317 15.1118 34.8559 14.9089 35.3456C14.7061 35.8353 14.3626 36.2539 13.9219 36.5483C13.4812 36.8428 12.963 37 12.433 37C12.0809 37.0003 11.7321 36.9311 11.4067 36.7966C11.0814 36.662 10.7857 36.4646 10.5366 36.2158C10.2876 35.9669 10.09 35.6713 9.9552 35.3461C9.82039 35.0208 9.75098 34.6721 9.75098 34.32H9.75293ZM13.553 28.686C13.2935 28.6868 13.0409 28.6024 12.8341 28.4457C12.6273 28.2891 12.4776 28.0689 12.408 27.819L7.57495 10.364H4.18201C3.86852 10.364 3.56786 10.2395 3.34619 10.0178C3.12452 9.79614 3 9.49549 3 9.18201C3 8.86852 3.12452 8.56787 3.34619 8.3462C3.56786 8.12454 3.86852 8.00001 4.18201 8.00001H8.46301C8.7225 7.99919 8.97504 8.08372 9.18176 8.24057C9.38848 8.39742 9.53784 8.61788 9.60693 8.86801L14.4399 26.323H27.6179L32.001 16.275H17.401C17.2428 16.2796 17.0854 16.2524 16.9379 16.1951C16.7904 16.1377 16.6559 16.0513 16.5424 15.9411C16.4288 15.8308 16.3386 15.6989 16.277 15.5532C16.2154 15.4074 16.1836 15.2508 16.1836 15.0925C16.1836 14.9343 16.2154 14.7776 16.277 14.6319C16.3386 14.4861 16.4288 14.3542 16.5424 14.2439C16.6559 14.1337 16.7904 14.0473 16.9379 13.9899C17.0854 13.9326 17.2428 13.9054 17.401 13.91H33.814C34.0097 13.91 34.2022 13.9587 34.3744 14.0517C34.5465 14.1448 34.6928 14.2793 34.7999 14.443C34.9078 14.6073 34.9734 14.7957 34.9908 14.9914C35.0083 15.1872 34.9771 15.3842 34.9 15.565L29.495 27.977C29.4026 28.1876 29.251 28.3668 29.0585 28.4927C28.866 28.6186 28.641 28.6858 28.411 28.686H13.553Z" fill="#E8E8E8"/>
</g>
<defs>
<clipPath id="clip0_1_23">
<rect width="32" height="29" fill="white" transform="translate(3 8)"/>
</clipPath>
</defs>
</svg>
