<svg width="44" height="38" viewBox="0 0 44 38" fill="none" xmlns="http://www.w3.org/2000/svg">
<g clip-path="url(#clip0_1_21)">
<path d="M21.5 28.937C26 28.937 29.656 24.464 29.656 18.968C29.656 13.472 26 9 21.5 9C20.3631 9.02174 19.2463 9.3034 18.2351 9.8234C17.2239 10.3434 16.3451 11.0879 15.666 12C14.1266 13.9957 13.3082 16.4538 13.344 18.974C13.344 24.465 17 28.937 21.5 28.937ZM21.5 10.813C25 10.813 27.844 14.472 27.844 18.969C27.844 23.466 24.998 27.125 21.5 27.125C18.002 27.125 15.156 23.465 15.155 18.969C15.154 14.473 18 10.813 21.5 10.813ZM27.844 27.125C27.6036 27.125 27.373 27.2205 27.203 27.3905C27.033 27.5605 26.9375 27.7911 26.9375 28.0315C26.9375 28.2719 27.033 28.5025 27.203 28.6725C27.373 28.8425 27.6036 28.938 27.844 28.938C29.526 28.9399 31.1386 29.6088 32.3279 30.7982C33.5172 31.9875 34.1861 33.6 34.188 35.282C34.1875 35.5221 34.0918 35.7523 33.922 35.9221C33.7522 36.0918 33.5221 36.1875 33.282 36.188H9.71997C9.47985 36.1875 9.24975 36.0918 9.07996 35.9221C8.91016 35.7523 8.81449 35.5221 8.81396 35.282C8.81608 33.6001 9.48517 31.9877 10.6744 30.7985C11.8637 29.6092 13.4761 28.9401 15.158 28.938C15.3982 28.938 15.6287 28.8425 15.7986 28.6726C15.9685 28.5027 16.064 28.2723 16.064 28.032C16.064 27.7917 15.9685 27.5613 15.7986 27.3914C15.6287 27.2215 15.3982 27.126 15.158 27.126C12.9954 27.1279 10.922 27.9875 9.39258 29.5164C7.86314 31.0453 7.00265 33.1185 7 35.281C7.00079 36.0019 7.2875 36.693 7.79724 37.2027C8.30698 37.7125 8.99811 37.9992 9.71899 38H33.282C34.0027 37.9989 34.6936 37.7121 35.2031 37.2024C35.7126 36.6927 35.9992 36.0017 36 35.281C35.9974 33.1187 35.1372 31.0457 33.6083 29.5168C32.0793 27.9878 30.0063 27.1276 27.844 27.125Z" fill="#E8E8E8"/>
</g>
<defs>
<clipPath id="clip0_1_21">
<rect width="29" height="29" fill="white" transform="translate(7 9)"/>
</clipPath>
</defs>
</svg>
